<?xml version="1.0" standalone="no"?>
<!DOCTYPE svg PUBLIC "-//W3C//DTD SVG 20010904//EN"
 "http://www.w3.org/TR/2001/REC-SVG-20010904/DTD/svg10.dtd">
<svg version="1.0" xmlns="http://www.w3.org/2000/svg"
 width="500.000000pt" height="500.000000pt" viewBox="0 0 500.000000 500.000000"
 preserveAspectRatio="xMidYMid meet">

<g transform="translate(0.000000,500.000000) scale(0.100000,-0.100000)"
fill="#000000" stroke="none">
<path d="M2168 3431 c-78 -25 -149 -80 -197 -152 -52 -77 -71 -141 -78 -254
-6 -88 -7 -91 -44 -127 -26 -25 -43 -55 -54 -90 l-15 -53 -62 -12 c-77 -15
-133 -53 -173 -118 -26 -43 -30 -57 -30 -124 0 -61 5 -87 27 -133 31 -67 96
-140 152 -173 71 -41 204 -83 315 -99 33 -5 57 -18 100 -57 66 -59 149 -101
258 -131 66 -18 105 -21 258 -21 204 0 282 14 412 78 169 83 346 326 412 565
24 85 28 219 9 284 -35 115 -224 209 -498 246 -47 6 -94 13 -106 15 -13 3 -38
32 -64 72 -89 139 -225 248 -359 287 -72 21 -191 20 -263 -3z m312 -74 c0 -2
-19 -21 -42 -42 l-42 -40 34 42 c30 35 50 52 50 40z m-140 -134 c30 28 -17
-21 -105 -110 l-159 -162 139 -141 c77 -78 142 -144 145 -148 2 -4 -62 58
-142 137 l-147 145 -23 -20 -23 -19 19 23 c19 22 19 22 -14 57 -19 19 -31 35
-26 35 4 0 20 -15 37 -32 l29 -33 105 105 105 105 -88 90 -87 90 90 -87 90
-88 55 53z m310 12 c52 -52 92 -95 90 -95 -3 0 -48 43 -100 95 -52 52 -92 95
-90 95 3 0 48 -43 100 -95z m-272 -192 c2 -24 -2 -34 -17 -43 -24 -12 -27 -3
-6 23 15 21 10 47 -9 47 -22 0 -64 -54 -77 -97 -10 -36 -10 -46 5 -68 25 -38
78 -28 96 20 11 30 52 57 73 49 12 -4 14 -14 10 -41 -6 -34 -5 -35 16 -24 15
9 20 18 16 31 -3 10 0 22 7 26 6 4 14 2 16 -4 2 -8 10 -7 27 4 29 19 40 5 24
-30 -14 -31 -5 -45 19 -29 10 6 16 21 14 36 -1 14 4 27 12 30 11 4 13 -3 9
-36 -5 -35 -3 -40 8 -29 7 6 12 28 11 48 -2 29 0 35 15 32 10 -2 19 -13 21
-25 l3 -23 29 21 c42 32 55 22 55 -44 0 -54 -9 -73 -21 -43 -3 8 -14 11 -29 9
-17 -4 -25 1 -30 16 -8 26 -17 26 -40 1 -19 -21 -45 -27 -45 -10 0 6 -7 6 -19
-1 -23 -15 -58 -4 -43 14 5 6 9 19 9 29 -1 26 -37 -2 -37 -28 0 -20 -5 -22
-69 -21 -42 0 -76 -4 -85 -12 -8 -7 -29 -13 -47 -13 -64 -2 -89 74 -49 152 25
49 57 71 95 68 26 -3 30 -8 33 -35z m740 -53 c132 -34 246 -90 279 -139 108
-160 -17 -536 -252 -759 -125 -120 -241 -160 -480 -169 -126 -4 -165 -2 -249
15 -121 26 -223 73 -296 139 -46 42 -63 51 -107 57 -149 19 -296 77 -364 143
-20 19 -50 60 -65 91 -24 48 -29 69 -29 133 0 67 3 80 29 117 38 55 112 92
183 92 52 0 53 1 53 29 0 42 20 93 48 124 23 24 27 25 35 11 5 -9 9 -39 8 -65
0 -41 4 -54 32 -85 34 -40 138 -95 218 -115 45 -12 49 -15 49 -43 1 -77 68
-166 126 -166 49 0 68 34 60 103 l-7 52 223 0 c142 0 250 5 298 13 201 36 333
86 396 148 27 28 34 43 34 74 0 21 -4 41 -8 44 -5 3 -6 -8 -4 -24 2 -15 -1
-36 -7 -47 -10 -17 -10 -17 -11 3 -1 69 -151 146 -340 176 -76 12 -78 13 -94
48 -9 20 -16 39 -16 42 0 9 148 -15 258 -42z m-285 -132 c-59 -66 -102 -108
-110 -108 -4 0 24 32 62 70 73 73 98 93 48 38z m-893 -91 c0 -5 -4 -5 -10 -2
-5 3 -10 14 -10 23 0 15 2 15 10 2 5 -8 10 -19 10 -23z m750 -51 c0 -2 -8 -10
-17 -17 -16 -13 -17 -12 -4 4 13 16 21 21 21 13z"/>
<path d="M2640 2964 c0 -8 5 -12 10 -9 6 3 10 10 10 16 0 5 -4 9 -10 9 -5 0
-10 -7 -10 -16z"/>
<path d="M2406 2944 c-9 -23 -7 -44 3 -44 5 0 14 14 20 30 8 24 7 30 -3 30 -8
0 -17 -7 -20 -16z"/>
<path d="M2712 2948 c-16 -16 -16 -51 0 -46 13 5 31 58 19 58 -4 0 -12 -5 -19
-12z"/>
<path d="M1704 2566 c-29 -29 -34 -41 -34 -80 0 -109 107 -215 249 -245 30 -6
56 -10 58 -8 2 2 -15 35 -37 73 -44 75 -94 198 -105 257 -7 36 -8 37 -52 37
-38 0 -50 -5 -79 -34z m110 -67 c10 -33 36 -96 57 -140 21 -43 36 -79 34 -79
-16 0 -96 45 -127 70 -47 39 -82 111 -73 148 9 39 34 62 65 62 23 0 28 -6 44
-61z"/>
<path d="M1519 1722 c-46 -23 -71 -77 -77 -167 -11 -174 82 -283 168 -197 31
31 52 103 32 110 -20 6 -27 0 -42 -42 -30 -80 -72 -45 -86 72 -8 78 2 143 27
171 28 30 46 26 59 -14 11 -34 32 -46 45 -25 8 13 -12 75 -28 88 -25 19 -63
21 -98 4z"/>
<path d="M3410 1730 l-25 -6 -3 -177 c-1 -111 1 -185 8 -197 22 -40 129 -19
164 32 30 42 11 136 -30 152 -14 5 -12 10 10 37 40 48 32 114 -16 140 -33 18
-80 26 -108 19z m95 -64 c16 -25 12 -49 -13 -78 -29 -34 -40 -22 -40 42 0 52
2 60 19 60 10 0 25 -11 34 -24z m-8 -168 c37 -40 31 -96 -12 -116 l-25 -12 0
75 c0 41 4 75 8 75 5 0 18 -10 29 -22z"/>
<path d="M1743 1710 c-94 -57 -75 -346 24 -374 78 -21 132 45 140 172 6 94 -9
155 -47 194 -34 33 -71 36 -117 8z m93 -41 c27 -30 33 -201 9 -253 -20 -41
-48 -47 -65 -16 -35 64 -33 220 2 265 24 30 30 31 54 4z"/>
<path d="M1960 1711 c-6 -11 -10 -89 -10 -181 0 -189 10 -222 60 -190 11 7 15
29 15 92 l0 83 35 5 c22 3 35 10 35 20 0 10 -13 17 -35 20 l-35 5 0 55 c0 53
1 54 33 61 40 8 46 14 39 34 -5 11 -22 15 -66 15 -49 0 -62 -4 -71 -19z"/>
<path d="M2145 1718 c-3 -8 -4 -97 -3 -198 3 -174 4 -185 22 -188 33 -7 46 25
46 109 l0 78 32 3 c22 2 34 9 36 21 3 14 -4 17 -32 17 l-36 0 0 59 0 60 33 3
c24 2 32 8 32 23 0 18 -8 20 -63 23 -45 2 -64 -1 -67 -10z"/>
<path d="M2330 1709 c-7 -13 -10 -77 -8 -181 3 -154 4 -160 27 -179 44 -35
160 -18 136 21 -3 5 -21 10 -39 10 -42 0 -53 13 -57 70 -4 44 -3 45 26 48 63
7 70 52 8 52 l-34 0 3 62 c3 54 6 63 23 66 50 7 65 13 65 26 0 19 -23 26 -85
26 -45 0 -56 -4 -65 -21z"/>
<path d="M2543 1718 c-13 -21 -16 -287 -3 -330 12 -43 38 -58 98 -58 45 0 67
13 59 34 -4 10 -19 16 -41 16 -42 0 -56 20 -56 79 0 39 1 40 38 43 29 2 37 7
37 23 0 16 -8 21 -37 23 l-38 3 0 52 c0 65 7 75 50 79 27 2 35 7 35 23 0 18
-8 20 -67 23 -46 2 -69 -1 -75 -10z"/>
<path d="M3162 1718 c-16 -16 -16 -208 -1 -280 21 -100 54 -131 107 -104 47
24 64 81 70 223 5 139 0 176 -26 171 -15 -3 -18 -22 -22 -160 -4 -128 -8 -161
-22 -174 -29 -29 -41 16 -46 171 -2 77 -9 146 -14 153 -13 15 -31 15 -46 0z"/>
<path d="M2910 1701 c-6 -11 -10 -87 -10 -176 0 -162 7 -195 40 -195 29 0 35
18 35 100 l0 75 38 3 37 3 0 -86 c0 -67 3 -87 15 -91 8 -4 22 -1 30 6 12 10
13 40 9 173 -6 195 -8 207 -34 207 -23 0 -24 -2 -24 -95 l-1 -70 -39 -3 -39
-3 5 63 c3 35 1 73 -3 86 -10 27 -44 29 -59 3z"/>
<path d="M2062 1196 c1 -10 8 -17 13 -17 15 1 12 24 -3 29 -9 3 -13 -2 -10
-12z"/>
<path d="M2280 1192 c-44 -35 -36 -172 10 -187 26 -8 49 5 56 32 9 35 -3 41
-16 8 -9 -25 -13 -27 -25 -14 -25 24 -31 104 -10 135 l18 27 18 -24 19 -24 0
22 c0 12 -9 27 -19 33 -25 13 -25 13 -51 -8z"/>
<path d="M2574 1199 c-4 -7 -2 -15 4 -17 8 -2 12 -32 12 -87 0 -82 12 -114 31
-84 10 16 8 189 -3 189 -3 0 -13 3 -21 6 -8 3 -18 0 -23 -7z"/>
<path d="M2686 1197 c-17 -12 -21 -35 -16 -87 1 -8 -4 -30 -12 -48 -12 -31
-11 -35 7 -48 25 -19 75 -14 89 8 8 13 5 24 -12 48 -21 28 -22 32 -7 52 38 55
1 112 -49 75z m44 -31 c0 -22 -11 -46 -21 -46 -10 0 -12 43 -2 53 11 12 23 8
23 -7z m-22 -98 c19 -19 15 -48 -7 -48 -25 0 -34 14 -26 40 7 23 16 25 33 8z"/>
<path d="M2804 1184 c-25 -38 -9 -76 44 -100 2 -1 -4 -19 -12 -39 -19 -46 -19
-45 -1 -45 19 0 42 46 56 110 9 43 8 55 -5 75 -22 33 -60 33 -82 -1z m44 -6
c17 -17 15 -68 -2 -68 -22 0 -39 28 -32 55 7 28 16 31 34 13z"/>
<path d="M2965 1190 c-13 -14 -16 -29 -12 -56 4 -24 1 -44 -9 -60 -30 -46 10
-85 71 -70 29 7 32 27 8 66 -14 24 -15 34 -5 55 17 36 15 72 -4 79 -24 9 -29
8 -49 -14z m44 -40 c-11 -31 -29 -32 -29 -1 0 21 9 31 26 31 10 0 11 -7 3 -30z
m-5 -121 c-9 -15 -44 -10 -50 6 -4 8 0 22 7 31 12 14 15 14 31 -6 10 -12 15
-26 12 -31z"/>
<path d="M1962 1188 c-19 -19 -14 -50 14 -91 30 -44 28 -73 -4 -70 -12 2 -22
-2 -22 -7 0 -17 30 -23 56 -12 32 15 31 51 -2 102 -30 45 -27 75 7 65 15 -5
20 -3 17 6 -6 18 -50 23 -66 7z"/>
<path d="M2118 1188 c-6 -16 0 -179 6 -185 14 -14 26 15 27 65 l0 57 23 -60
c36 -90 46 -83 46 34 0 61 -4 101 -10 101 -6 0 -10 -30 -11 -67 l0 -68 -26 68
c-24 62 -45 84 -55 55z"/>
<path d="M2376 1184 c-8 -20 -8 -122 0 -152 7 -25 44 -39 71 -27 16 7 16 8 -2
12 -42 9 -64 73 -25 73 27 0 26 16 -1 23 -15 4 -20 11 -15 22 3 9 6 23 6 31 0
8 9 14 20 14 11 0 20 5 20 10 0 17 -67 12 -74 -6z"/>
<path d="M2060 1080 c0 -61 3 -81 13 -77 17 5 17 149 0 155 -10 3 -13 -17 -13
-78z"/>
</g>
</svg>
