<?xml version="1.0" encoding="UTF-8"?>
<!DOCTYPE svg PUBLIC "-//W3C//DTD SVG 1.1//EN" "http://www.w3.org/Graphics/SVG/1.1/DTD/svg11.dtd">
<svg xmlns="http://www.w3.org/2000/svg" version="1.1" width="500px" height="500px" style="shape-rendering:geometricPrecision; text-rendering:geometricPrecision; image-rendering:optimizeQuality; fill-rule:evenodd; clip-rule:evenodd" xmlns:xlink="http://www.w3.org/1999/xlink">
<g><path style="opacity:1" fill="#fee7ce" d="M -0.5,-0.5 C 166.167,-0.5 332.833,-0.5 499.5,-0.5C 499.5,166.167 499.5,332.833 499.5,499.5C 332.833,499.5 166.167,499.5 -0.5,499.5C -0.5,332.833 -0.5,166.167 -0.5,-0.5 Z"/></g>
<g><path style="opacity:1" fill="#ddd1c3" d="M 279.5,97.5 C 280.043,97.56 280.376,97.8933 280.5,98.5C 277.79,103.581 277.956,108.581 281,113.5C 293.24,126.095 293.573,139.095 282,152.5C 284.56,142.184 281.894,133.517 274,126.5C 269.712,120.386 269.378,114.052 273,107.5C 274.996,104.014 277.163,100.681 279.5,97.5 Z"/></g>
<g><path style="opacity:1" fill="#dcd0c2" d="M 253.5,97.5 C 254.465,98.7211 254.298,100.054 253,101.5C 252.333,103.833 252.333,106.167 253,108.5C 256.302,113.813 259.635,119.146 263,124.5C 266.212,135.202 263.878,144.535 256,152.5C 257.512,145.129 256.512,138.129 253,131.5C 244.729,125.081 242.729,117.081 247,107.5C 248.996,104.014 251.163,100.681 253.5,97.5 Z"/></g>
<g><path style="opacity:1" fill="#110f0e" d="M 220.5,154.5 C 241.35,152.51 258.517,159.51 272,175.5C 276.09,180.428 279.59,185.761 282.5,191.5C 297.161,193.199 311.495,196.366 325.5,201C 343.956,207.403 350.789,220.236 346,239.5C 332.065,297.068 295.898,320.234 237.5,309C 224.736,306.621 214.069,300.621 205.5,291C 192.458,289.657 180.125,285.99 168.5,280C 152.816,268.949 147.983,254.449 154,236.5C 159.649,228.421 167.482,224.088 177.5,223.5C 178.48,216.193 181.98,210.526 188,206.5C 186.031,180.705 196.864,163.372 220.5,154.5 Z"/></g>
<g><path style="opacity:1" fill="#947159" d="M 288.5,216.5 C 286.338,222.658 282.004,226.324 275.5,227.5C 272.83,225.476 270.163,223.476 267.5,221.5C 267.024,219.934 266.357,219.6 265.5,220.5C 266.788,222.739 267.788,225.072 268.5,227.5C 268.141,229.371 267.141,230.871 265.5,232C 259.529,233.131 253.529,233.464 247.5,233C 245.139,232.803 243.472,231.636 242.5,229.5C 241.893,229.624 241.56,229.957 241.5,230.5C 241.167,230.5 240.833,230.5 240.5,230.5C 238.574,231.242 236.741,232.242 235,233.5C 233.46,237.419 231.293,240.919 228.5,244C 226.803,244.384 225.137,244.218 223.5,243.5C 222.743,237.605 224.076,232.271 227.5,227.5C 219.566,228.132 212.732,224.798 207,217.5C 205.288,213.907 203.454,210.407 201.5,207C 201.075,202.947 199.742,199.28 197.5,196C 196.84,185.818 199.507,176.651 205.5,168.5C 212.246,162.178 219.913,161.011 228.5,165C 232.241,166.738 235.408,169.238 238,172.5C 237.956,170.721 237.289,169.055 236,167.5C 233.989,164.99 231.822,162.657 229.5,160.5C 230.171,159.054 231.338,158.388 233,158.5C 251.144,161.575 265.144,170.908 275,186.5C 280.559,196.007 285.059,206.007 288.5,216.5 Z"/></g>
<g><path style="opacity:1" fill="#191410" d="M 263.5,184.5 C 267.713,184.699 269.046,186.699 267.5,190.5C 266.719,189.263 265.719,188.263 264.5,187.5C 263.167,189.167 261.833,190.833 260.5,192.5C 259.417,191.635 259.251,190.635 260,189.5C 260.997,187.677 262.164,186.01 263.5,184.5 Z"/></g>
<g><path style="opacity:1" fill="#beaa9c" d="M 237.5,193.5 C 236.833,193.5 236.167,193.5 235.5,193.5C 233.216,193.975 231.216,194.975 229.5,196.5C 225.338,200.464 224.505,205.13 227,210.5C 229.796,211.679 232.629,211.679 235.5,210.5C 232.185,213.994 228.518,214.327 224.5,211.5C 221.317,203.541 223.317,197.041 230.5,192C 232.5,191.333 234.5,191.333 236.5,192C 237.056,192.383 237.389,192.883 237.5,193.5 Z"/></g>
<g><path style="opacity:1" fill="#0d0907" d="M 235.5,193.5 C 233.401,196.041 232.068,199.041 231.5,202.5C 230.5,202.5 229.5,202.5 228.5,202.5C 228.517,200.435 228.85,198.435 229.5,196.5C 231.216,194.975 233.216,193.975 235.5,193.5 Z"/></g>
<g><path style="opacity:1" fill="#0c0907" d="M 237.5,193.5 C 240.966,193.968 242.632,195.968 242.5,199.5C 239.457,198.795 237.79,196.795 237.5,193.5 Z"/></g>
<g><path style="opacity:1" fill="#c4b2a4" d="M 255.5,205.5 C 255.5,206.167 255.167,206.5 254.5,206.5C 253.778,206.082 253.278,205.416 253,204.5C 251.644,205.38 250.144,205.714 248.5,205.5C 248.651,202.282 249.484,201.949 251,204.5C 252.11,202.963 253.61,202.297 255.5,202.5C 255.5,203.5 255.5,204.5 255.5,205.5 Z"/></g>
<g><path style="opacity:1" fill="#211c19" d="M 255.5,205.5 C 256.5,205.5 257.5,205.5 258.5,205.5C 258.512,208.142 257.179,209.475 254.5,209.5C 254.5,208.5 254.5,207.5 254.5,206.5C 255.167,206.5 255.5,206.167 255.5,205.5 Z"/></g>
<g><path style="opacity:1" fill="#3a2513" d="M 289.5,204.5 C 302.129,205.824 314.129,209.324 325.5,215C 328.892,217.285 330.559,220.452 330.5,224.5C 326.399,228.735 321.399,231.568 315.5,233C 291.904,239.195 267.904,241.029 243.5,238.5C 249.842,238.666 256.175,238.5 262.5,238C 265.522,237.902 268.189,237.068 270.5,235.5C 272.099,235.768 273.432,235.434 274.5,234.5C 282.209,233.21 287.542,228.543 290.5,220.5C 291.161,218.866 291.494,217.033 291.5,215C 291.519,211.335 290.852,207.835 289.5,204.5 Z"/></g>
<g><path style="opacity:1" fill="#60544d" d="M 266.5,201.5 C 264.95,204.242 263.117,206.909 261,209.5C 260.322,207.402 260.489,205.402 261.5,203.5C 263.474,201.572 264.974,199.239 266,196.5C 266.494,198.134 266.66,199.801 266.5,201.5 Z"/></g>
<g><path style="opacity:1" fill="#c5b2a4" d="M 235.5,210.5 C 236.038,204.78 239.038,202.28 244.5,203C 245.711,203.893 245.711,204.726 244.5,205.5C 240.435,202.84 238.435,204.173 238.5,209.5C 240.912,209.756 242.579,208.756 243.5,206.5C 244.167,207.5 244.833,208.5 245.5,209.5C 246.891,208.355 248.224,208.355 249.5,209.5C 249.192,210.308 248.692,210.975 248,211.5C 243.993,210.556 239.826,210.223 235.5,210.5 Z"/></g>
<g><path style="opacity:1" fill="#baa99c" d="M 266.5,201.5 C 266.343,202.873 266.51,204.207 267,205.5C 267.837,203.993 269.004,203.493 270.5,204C 268.953,209.66 270.12,210.493 274,206.5C 274.614,208.879 274.947,211.212 275,213.5C 273.667,212.833 272.667,211.833 272,210.5C 269.012,211.744 266.845,210.744 265.5,207.5C 263.796,209.041 261.963,210.375 260,211.5C 259.055,211.095 258.388,210.428 258,209.5C 256.445,211.515 254.611,211.848 252.5,210.5C 252.957,209.702 253.624,209.369 254.5,209.5C 257.179,209.475 258.512,208.142 258.5,205.5C 258.668,202.949 259.668,202.282 261.5,203.5C 260.489,205.402 260.322,207.402 261,209.5C 263.117,206.909 264.95,204.242 266.5,201.5 Z"/></g>
<g><path style="opacity:1" fill="#784d37" d="M 205.5,168.5 C 199.507,176.651 196.84,185.818 197.5,196C 199.742,199.28 201.075,202.947 201.5,207C 203.454,210.407 205.288,213.907 207,217.5C 212.732,224.798 219.566,228.132 227.5,227.5C 224.856,229.153 222.856,231.487 221.5,234.5C 214.242,234.773 207.242,233.273 200.5,230C 197.403,226.417 195.236,222.251 194,217.5C 189.199,200.981 191.532,185.648 201,171.5C 202.129,169.859 203.629,168.859 205.5,168.5 Z"/></g>
<g><path style="opacity:1" fill="#dacec1" d="M 330.5,224.5 C 330.559,220.452 328.892,217.285 325.5,215C 314.129,209.324 302.129,205.824 289.5,204.5C 287.941,202.392 286.608,200.059 285.5,197.5C 300.397,197.066 314.73,199.9 328.5,206C 338.373,210.246 343.373,217.746 343.5,228.5C 340.775,258.803 327.108,282.637 302.5,300C 282.736,307.477 262.403,309.477 241.5,306C 227.465,303.951 215.798,297.618 206.5,287C 192.559,285.933 179.559,281.933 167.5,275C 153.823,264.009 150.989,250.842 159,235.5C 165.207,229.266 172.707,226.932 181.5,228.5C 180.695,220.984 183.195,214.984 189,210.5C 190.132,212.339 190.965,214.339 191.5,216.5C 190.456,218.768 190.289,221.101 191,223.5C 194.896,229.707 200.396,233.874 207.5,236C 211.716,237.684 216.049,238.851 220.5,239.5C 220.113,247.56 223.113,254.06 229.5,259C 236.368,260.801 239.701,258.135 239.5,251C 239.275,248.472 238.942,245.972 238.5,243.5C 265.814,246.418 292.481,243.585 318.5,235C 324.501,232.984 329.334,229.484 333,224.5C 333.667,222.167 333.667,219.833 333,217.5C 332.667,219.5 332.333,221.5 332,223.5C 331.617,224.056 331.117,224.389 330.5,224.5 Z"/></g>
<g><path style="opacity:1" fill="#fbfaf9" d="M 280.5,246.5 C 283.85,246.335 287.183,246.502 290.5,247C 293.167,248.667 293.167,250.333 290.5,252C 286.903,253.277 283.236,253.61 279.5,253C 276.777,250.341 277.11,248.175 280.5,246.5 Z"/></g>
<g><path style="opacity:1" fill="#121110" d="M 173.5,239.5 C 176.5,239.5 179.5,239.5 182.5,239.5C 184.741,252.649 189.741,264.649 197.5,275.5C 185.703,275.182 176.203,270.182 169,260.5C 164.587,252.034 166.087,245.034 173.5,239.5 Z"/></g>
<g><path style="opacity:1" fill="#f5dfc7" d="M 173.5,243.5 C 175.604,243.201 177.604,243.534 179.5,244.5C 181.704,253.946 185.371,262.78 190.5,271C 179.37,268.875 172.37,262.208 169.5,251C 169.927,247.977 171.261,245.477 173.5,243.5 Z"/></g>
<g><path style="opacity:1" fill="#fcfcfb" d="M 329.5,234.5 C 330.833,234.5 332.167,234.5 333.5,234.5C 333.703,236.39 333.037,237.89 331.5,239C 320.608,246.225 308.608,250.058 295.5,250.5C 295.5,248.833 295.5,247.167 295.5,245.5C 307.9,244.578 319.233,240.912 329.5,234.5 Z"/></g>
<g><path style="opacity:1" fill="#784c36" d="M 240.5,230.5 C 238.486,233.194 236.986,236.194 236,239.5C 236.366,245.067 236.2,250.567 235.5,256C 231.74,257.176 228.907,256.01 227,252.5C 225.259,249.691 224.092,246.691 223.5,243.5C 225.137,244.218 226.803,244.384 228.5,244C 231.293,240.919 233.46,237.419 235,233.5C 236.741,232.242 238.574,231.242 240.5,230.5 Z"/></g>
<g><path style="opacity:1" fill="#784d36" d="M 268.5,227.5 C 270.04,229.838 270.706,232.505 270.5,235.5C 268.189,237.068 265.522,237.902 262.5,238C 256.175,238.5 249.842,238.666 243.5,238.5C 242.167,238.5 240.833,238.5 239.5,238.5C 239.253,235.495 240.253,232.995 242.5,231C 242.272,230.601 241.938,230.435 241.5,230.5C 241.56,229.957 241.893,229.624 242.5,229.5C 243.472,231.636 245.139,232.803 247.5,233C 253.529,233.464 259.529,233.131 265.5,232C 267.141,230.871 268.141,229.371 268.5,227.5 Z"/></g>
<g><path style="opacity:1" fill="#0f0a07" d="M 267.5,221.5 C 270.088,225.674 272.421,230.007 274.5,234.5C 273.432,235.434 272.099,235.768 270.5,235.5C 270.706,232.505 270.04,229.838 268.5,227.5C 267.788,225.072 266.788,222.739 265.5,220.5C 266.357,219.6 267.024,219.934 267.5,221.5 Z"/></g>
<g><path style="opacity:1" fill="#9a9085" d="M 191.5,218.5 C 192.905,220.64 193.738,222.974 194,225.5C 192.097,223.559 191.264,221.226 191.5,218.5 Z"/></g>
<g><path style="opacity:1" fill="#744b34" d="M 306.5,218.5 C 310.698,220.177 311.532,222.843 309,226.5C 306.726,230.152 303.559,231.985 299.5,232C 303.03,228.107 305.363,223.607 306.5,218.5 Z"/></g>
<g><path style="opacity:1" fill="#754a33" d="M 295.5,216.5 C 297.017,216.511 298.184,217.177 299,218.5C 299.596,228.571 294.762,233.405 284.5,233C 291.942,230.051 295.609,224.551 295.5,216.5 Z"/></g>
<g><path style="opacity:1" fill="#794e38" d="M 288.5,216.5 C 289.674,217.514 290.34,218.847 290.5,220.5C 287.542,228.543 282.209,233.21 274.5,234.5C 272.421,230.007 270.088,225.674 267.5,221.5C 270.163,223.476 272.83,225.476 275.5,227.5C 282.004,226.324 286.338,222.658 288.5,216.5 Z"/></g>
<g><path style="opacity:1" fill="#3f2816" d="M 150.5,326.5 C 159.82,324.475 164.486,328.141 164.5,337.5C 163.167,337.5 161.833,337.5 160.5,337.5C 159.427,329.863 156.593,328.863 152,334.5C 149.572,343.415 150.239,352.081 154,360.5C 155.333,361.833 156.667,361.833 158,360.5C 158.986,358.222 159.82,355.889 160.5,353.5C 161.689,352.571 163.022,352.238 164.5,352.5C 164.953,361.878 160.619,366.378 151.5,366C 147.138,363.457 144.638,359.623 144,354.5C 143.333,348.833 143.333,343.167 144,337.5C 145.157,333.178 147.324,329.511 150.5,326.5 Z"/></g>
<g><path style="opacity:1" fill="#402917" d="M 175.5,326.5 C 183.199,325.701 188.032,329.034 190,336.5C 190.968,344.319 190.301,351.986 188,359.5C 184.067,366.928 178.734,368.261 172,363.5C 166.467,352.642 166.133,341.642 171,330.5C 172.397,328.93 173.897,327.596 175.5,326.5 Z"/></g>
<g><path style="opacity:1" fill="#442d1b" d="M 196.5,326.5 C 200.514,326.334 204.514,326.501 208.5,327C 209.833,328.333 209.833,329.667 208.5,331C 206.19,331.497 203.857,331.663 201.5,331.5C 201.335,335.182 201.501,338.848 202,342.5C 204.069,343.264 206.236,343.764 208.5,344C 209.833,345 209.833,346 208.5,347C 206.527,347.495 204.527,347.662 202.5,347.5C 202.666,352.844 202.499,358.177 202,363.5C 200.174,367.037 197.84,367.371 195,364.5C 194.333,352.5 194.333,340.5 195,328.5C 195.717,327.956 196.217,327.289 196.5,326.5 Z"/></g>
<g><path style="opacity:1" fill="#3e2715" d="M 214.5,326.5 C 218.514,326.334 222.514,326.501 226.5,327C 227.833,328.333 227.833,329.667 226.5,331C 224.527,331.495 222.527,331.662 220.5,331.5C 220.5,335.5 220.5,339.5 220.5,343.5C 222.833,343.5 225.167,343.5 227.5,343.5C 227.67,344.822 227.337,345.989 226.5,347C 224.527,347.495 222.527,347.662 220.5,347.5C 220.666,352.844 220.499,358.177 220,363.5C 218.776,366.473 216.776,367.14 214,365.5C 213.187,352.425 213.354,339.425 214.5,326.5 Z"/></g>
<g><path style="opacity:1" fill="#3f2917" d="M 233.5,326.5 C 237.514,326.334 241.514,326.501 245.5,327C 248.167,328.333 248.167,329.667 245.5,331C 243.236,331.236 241.069,331.736 239,332.5C 238.501,336.486 238.334,340.486 238.5,344.5C 240.857,344.337 243.19,344.503 245.5,345C 246.833,346.333 246.833,347.667 245.5,349C 243.19,349.497 240.857,349.663 238.5,349.5C 238.335,352.85 238.502,356.183 239,359.5C 241.507,361.155 244.341,361.989 247.5,362C 248.925,363.714 248.592,365.047 246.5,366C 242.833,366.667 239.167,366.667 235.5,366C 233.951,364.786 232.785,363.286 232,361.5C 231.333,350.5 231.333,339.5 232,328.5C 232.717,327.956 233.217,327.289 233.5,326.5 Z"/></g>
<g><path style="opacity:1" fill="#3e2816" d="M 254.5,326.5 C 258.514,326.334 262.514,326.501 266.5,327C 268.592,327.953 268.925,329.286 267.5,331C 264.905,331.226 262.405,331.726 260,332.5C 259.501,336.486 259.334,340.486 259.5,344.5C 261.857,344.337 264.19,344.503 266.5,345C 267.833,346.333 267.833,347.667 266.5,349C 264.19,349.497 261.857,349.663 259.5,349.5C 259.335,352.85 259.502,356.183 260,359.5C 262.507,361.155 265.341,361.989 268.5,362C 269.517,363.049 269.684,364.216 269,365.5C 264.191,367.032 259.524,366.699 255,364.5C 254.138,362.913 253.471,361.246 253,359.5C 252.333,349.5 252.333,339.5 253,329.5C 253.513,328.473 254.013,327.473 254.5,326.5 Z"/></g>
<g><path style="opacity:1" fill="#3e2816" d="M 338.5,326.5 C 342.605,326.234 346.605,326.734 350.5,328C 357.111,333.494 357.111,339.16 350.5,345C 355.794,348.435 357.627,353.268 356,359.5C 352.061,365.373 346.561,367.54 339.5,366C 338.874,365.25 338.374,364.416 338,363.5C 337.188,351.091 337.355,338.758 338.5,326.5 Z"/></g>
<g><path style="opacity:1" fill="#422c1a" d="M 291.5,327.5 C 293.144,327.286 294.644,327.62 296,328.5C 296.499,333.823 296.666,339.156 296.5,344.5C 298.833,344.5 301.167,344.5 303.5,344.5C 303.334,339.489 303.501,334.489 304,329.5C 305.312,327.342 306.978,327.009 309,328.5C 309.758,340.501 310.091,352.501 310,364.5C 308.604,366.527 306.938,366.86 305,365.5C 304.501,359.843 304.334,354.176 304.5,348.5C 301.881,348.232 299.381,348.565 297,349.5C 296.895,352.473 297.062,355.473 297.5,358.5C 298.224,362.377 296.891,365.044 293.5,366.5C 291.971,366.471 290.804,365.804 290,364.5C 289.333,352.833 289.333,341.167 290,329.5C 290.717,328.956 291.217,328.289 291.5,327.5 Z"/></g>
<g><path style="opacity:1" fill="#3d2715" d="M 316.5,326.5 C 318.39,326.297 319.89,326.963 321,328.5C 321.333,336.5 321.667,344.5 322,352.5C 322.253,355.79 323.253,358.79 325,361.5C 326.981,359.641 327.981,357.308 328,354.5C 328.333,345.5 328.667,336.5 329,327.5C 330.333,326.167 331.667,326.167 333,327.5C 333.667,336.5 333.667,345.5 333,354.5C 332.221,360.778 329.054,365.111 323.5,367.5C 321.272,366.781 319.439,365.448 318,363.5C 316.422,360.343 315.422,357.009 315,353.5C 314.333,345.167 314.333,336.833 315,328.5C 315.717,327.956 316.217,327.289 316.5,326.5 Z"/></g>
<g><path style="opacity:1" fill="#e5ceb6" d="M 344.5,330.5 C 352.292,332.388 353.292,336.222 347.5,342C 346.552,342.483 345.552,342.649 344.5,342.5C 344.5,338.5 344.5,334.5 344.5,330.5 Z"/></g>
<g><path style="opacity:1" fill="#f5dec6" d="M 179.5,330.5 C 182.091,331.254 183.924,332.921 185,335.5C 185.667,342.5 185.667,349.5 185,356.5C 183.987,358.846 182.321,360.513 180,361.5C 178.347,361.18 177.347,360.18 177,358.5C 174.633,352.033 173.966,345.367 175,338.5C 175.738,335.352 177.238,332.685 179.5,330.5 Z"/></g>
<g><path style="opacity:1" fill="#f8e1c9" d="M 345.5,347.5 C 351.303,349.645 352.969,353.645 350.5,359.5C 349.15,360.95 347.484,361.617 345.5,361.5C 345.5,356.833 345.5,352.167 345.5,347.5 Z"/></g>
<g><path style="opacity:1" fill="#865c46" d="M 281.5,378.5 C 286.674,378.009 289.34,380.342 289.5,385.5C 288.704,390.053 287.204,394.386 285,398.5C 283.989,399.337 282.822,399.67 281.5,399.5C 281.724,397.213 282.391,395.047 283.5,393C 282.924,391.286 281.757,390.119 280,389.5C 277.697,385.332 278.197,381.665 281.5,378.5 Z"/></g>
<g><path style="opacity:1" fill="#845944" d="M 197.5,378.5 C 199.912,378.244 201.579,379.244 202.5,381.5C 201.349,382.731 200.183,382.731 199,381.5C 198.13,382.108 197.63,382.941 197.5,384C 199.852,387.182 201.519,390.682 202.5,394.5C 202.167,398.989 199.833,400.489 195.5,399C 195.043,398.586 194.709,398.086 194.5,397.5C 196.045,396.548 197.712,396.215 199.5,396.5C 197.582,392.319 195.915,387.986 194.5,383.5C 194.323,381.032 195.323,379.365 197.5,378.5 Z"/></g>
<g><path style="opacity:1" fill="#8b614b" d="M 205.5,378.5 C 208.861,379.203 209.194,380.537 206.5,382.5C 204.358,381.563 204.024,380.23 205.5,378.5 Z"/></g>
<g><path style="opacity:1" fill="#865c46" d="M 211.5,379.5 C 212.675,379.281 213.675,379.614 214.5,380.5C 216.489,383.966 217.989,387.632 219,391.5C 219.499,387.514 219.666,383.514 219.5,379.5C 220.5,379.5 221.5,379.5 222.5,379.5C 222.666,385.842 222.5,392.175 222,398.5C 221.586,398.957 221.086,399.291 220.5,399.5C 218.172,396.178 216.339,392.511 215,388.5C 214.667,391.833 214.333,395.167 214,398.5C 213,399.833 212,399.833 211,398.5C 210.21,392.085 210.376,385.752 211.5,379.5 Z"/></g>
<g><path style="opacity:1" fill="#895f49" d="M 228.5,378.5 C 233.22,378.206 234.886,380.206 233.5,384.5C 232.614,383.675 232.281,382.675 232.5,381.5C 231.178,381.33 230.011,381.663 229,382.5C 228.201,387.087 228.368,391.587 229.5,396C 231.934,396.333 232.934,395.166 232.5,392.5C 233.5,392.5 234.5,392.5 235.5,392.5C 234.61,398.861 231.443,400.527 226,397.5C 224.445,392.618 224.112,387.618 225,382.5C 226.032,380.973 227.199,379.64 228.5,378.5 Z"/></g>
<g><path style="opacity:1" fill="#885e48" d="M 237.5,378.5 C 239.833,378.5 242.167,378.5 244.5,378.5C 244.5,379.5 244.5,380.5 244.5,381.5C 243.167,381.5 241.833,381.5 240.5,381.5C 240.5,383.833 240.5,386.167 240.5,388.5C 245.833,389.167 245.833,389.833 240.5,390.5C 240.5,392.5 240.5,394.5 240.5,396.5C 242.429,396.231 244.095,396.731 245.5,398C 242.535,400.089 239.701,399.922 237,397.5C 236.21,391.085 236.376,384.752 237.5,378.5 Z"/></g>
<g><path style="opacity:1" fill="#855b45" d="M 256.5,378.5 C 258.467,378.261 260.301,378.594 262,379.5C 262.667,385.833 262.667,392.167 262,398.5C 261,399.833 260,399.833 259,398.5C 258.501,392.843 258.334,387.176 258.5,381.5C 255.752,381.598 255.086,380.598 256.5,378.5 Z"/></g>
<g><path style="opacity:1" fill="#835843" d="M 268.5,378.5 C 270.467,378.261 272.301,378.594 274,379.5C 274.694,383.002 274.194,386.336 272.5,389.5C 277.821,399.347 275.321,402.013 265,397.5C 264.398,394.338 264.898,391.338 266.5,388.5C 264.746,384.603 265.413,381.27 268.5,378.5 Z"/></g>
<g><path style="opacity:1" fill="#855b45" d="M 297.5,378.5 C 300.864,377.873 302.864,379.206 303.5,382.5C 302.778,384.944 301.778,387.278 300.5,389.5C 305.998,397.582 303.998,400.749 294.5,399C 292.006,395.56 292.34,392.227 295.5,389C 292.602,384.766 293.269,381.266 297.5,378.5 Z"/></g>
<g><path style="opacity:1" fill="#f9e2c9" d="M 281.5,381.5 C 282.822,381.33 283.989,381.663 285,382.5C 285.495,384.473 285.662,386.473 285.5,388.5C 284.178,388.67 283.011,388.337 282,387.5C 281.505,385.527 281.338,383.527 281.5,381.5 Z"/></g>
<g><path style="opacity:1" fill="#ecd2b9" d="M 298.5,381.5 C 300.847,383.03 301.014,385.03 299,387.5C 297.2,385.635 297.034,383.635 298.5,381.5 Z"/></g>
<g><path style="opacity:1" fill="#f6dec5" d="M 270.5,381.5 C 272.896,382.828 272.896,384.494 270.5,386.5C 269.334,384.833 269.334,383.166 270.5,381.5 Z"/></g>
<g><path style="opacity:1" fill="#865b46" d="M 205.5,383.5 C 206.5,383.5 207.5,383.5 208.5,383.5C 208.666,388.511 208.499,393.511 208,398.5C 207,399.833 206,399.833 205,398.5C 204.222,393.416 204.389,388.416 205.5,383.5 Z"/></g>
<g><path style="opacity:1" fill="#eed4bc" d="M 267.5,391.5 C 270.776,392.122 272.109,394.122 271.5,397.5C 266.719,397.833 265.386,395.833 267.5,391.5 Z"/></g>
<g><path style="opacity:1" fill="#f5ddc4" d="M 296.5,391.5 C 298.975,392.687 299.975,394.687 299.5,397.5C 298.167,397.5 296.833,397.5 295.5,397.5C 295.325,395.379 295.659,393.379 296.5,391.5 Z"/></g>
</svg>
